# AST/ASF file generated using VICON BodyLanguage
# -----------------------------------------------
:version 1.10
:name VICON
:units
  mass 1.0
  length 0.45
  angle deg
:documentation
   .ast/.asf automatically generated from VICON data using
   VICON BodyBuilder and BodyLanguage model FoxedUp or BRILLIANT.MOD
:root
   order TX TY TZ RX RY RZ
   axis XYZ
   position 0 0 0  
   orientation 0 0 0 
:bonedata
  begin
     id 1 
     name lhipjoint
     direction 0.602128 -0.715006 0.355257 
     length 2.21237 
     axis 0 0 0  XYZ
  end
  begin
     id 2 
     name lfemur
     direction 0.34202 -0.939693 0  
     length 6.71649  
     axis 0 0 20  XYZ
    dof rx ry rz
    limits (-160.0 20.0)
           (-70.0 70.0)
           (-60.0 70.0)
  end
  begin
     id 3 
     name ltibia
     direction 0.34202 -0.939693 0   
     length 6.97123   
     axis 0 0 20   XYZ
    dof rx
    limits (-10.0 170.0)
  end
  begin
     id 4 
     name lfoot
     direction 0.0655697 -0.180151 0.981451   
     length 1.80924   
     axis -90 7.62852e-016 20   XYZ
    dof rx rz
    limits (-45.0 90.0)
           (-70.0 20.0)
  end
  begin
     id 5 
     name ltoes
     direction 1.53545e-011 -4.21827e-011 1   
     length 0.916331   
     axis -90 7.62852e-016 20   XYZ
    dof rx
    limits (-90.0 20.0)
  end
  begin
     id 6 
     name rhipjoint
     direction -0.625414 -0.698792 0.347201   
     length 2.2637  
     axis 0 0 0  XYZ 
  end
  begin
     id 7 
     name rfemur
     direction -0.34202 -0.939693 0   
     length 7.07595   
     axis 0 0 -20   XYZ
    dof rx ry rz
    limits (-160.0 20.0)
           (-70.0 70.0)
           (-70.0 60.0)
  end
  begin
     id 8 
     name rtibia
     direction -0.34202 -0.939693 0   
     length 7.22924   
     axis 0 0 -20   XYZ
    dof rx
    limits (-10.0 170.0)
 end
 begin
     id 9 
     name rfoot
     direction -0.0766747 -0.210662 0.974547   
     length 1.98482  
     axis -90 -7.62852e-016 -20   XYZ
    dof rx rz
    limits (-45.0 90.0)
           (-20.0 70.0)
  end
  begin
     id 10 
     name rtoes
     direction -1.53532e-011 -4.21867e-011 1   
     length 0.999842   
     axis -90 -7.62852e-016 -20   XYZ
    dof rx
    limits (-90.0 20.0)
  end
  begin
     id 11 
     name lowerback
     direction -0.0224668 0.997354 -0.0691422   
     length 2.09945   
     axis 0 0 0   XYZ
    dof rx ry rz
    limits (-20.0 45.0)
           (-30.0 30.0)
           (-30.0 30.0)
  end
  begin
     id 12 
     name upperback
     direction 0.0134698 0.998451 -0.0539888   
     length 2.09758   
     axis 0 0 0   XYZ
    dof rx ry rz
    limits (-20.0 45.0)
           (-30.0 30.0)
           (-30.0 30.0)
  end
  begin
     id 13 
     name thorax
     direction 0.0241905 0.99948 -0.0213333   
     length 2.10428   
     axis 0 0 0   XYZ
    dof rx ry rz
    limits (-20.0 45.0)
           (-30.0 30.0)
           (-30.0 30.0)
  end
  begin
     id 14 
     name lowerneck
     direction -0.00866847 0.995978 0.0891737   
     length 1.3959   
     axis 0 0 0   XYZ
    dof rx ry rz
    limits (-20.0 45.0)
           (-30.0 30.0)
           (-30.0 30.0)
  end
  begin
     id 15 
     name upperneck
     direction 0.0680679 0.992203 0.104404   
     length 1.39452   
     axis 0 0 0   XYZ
    dof rx ry rz
    limits (-20.0 45.0)
           (-30.0 30.0)
           (-30.0 30.0)
  end
  begin
     id 16
     name head
     direction 0.0242216 0.999358 0.0264054  
     length 1.40433  
     axis 0 0 0   XYZ
    dof rx ry rz
    limits (-20.0 45.0)
           (-30.0 30.0)
           (-30.0 30.0)
  end
  begin
     id 17 
     name lclavicle
     direction 0.929368 0.362991 -0.0671771  
     length 3.04887  
     axis 0 0 0   XYZ
    dof ry rz
    limits (-20.0 10.0)
           (0.0 20.0)
  end
  begin
     id 18 
     name lhumerus
     direction 1 -4.48967e-011 -7.13741e-028   
     length 4.77195   
     axis -180 -30 -90   XYZ
    dof rx ry rz
    limits (-60.0 90.0)
           (-90.0 90.0)
           (-90.0 90.0)
  end
  begin
     id 19
     name lradius
     direction 1 -4.48977e-011 3.60404e-027   
     length 2.98444   
     axis -180 -30 -90   XYZ
    dof rx
    limits (-10.0 170.0)
  end
  begin
     id 20
     name lwrist
     direction 1 -4.48997e-011 7.54877e-027   
     length 1.49222   
     axis -7.18178e-015 90 90   XYZ
    dof ry
    limits (-180.0 0.0)
 end
  begin
     id 21 
     name lhand
     direction 1 -4.489e-011 1.51105e-026   
     length 0.992285   
     axis -9.63605e-015 90 90   XYZ
    dof rx rz
    limits (-90.0 90.0)
           (-45.0 45.0)
  end
  begin
     id 22 
     name lfingers
     direction 1 -4.48998e-011 3.01948e-026   
     length 0.800006   
     axis -1.92718e-014 90 90   XYZ
    dof rx
    limits (0.0 90.0)
  end
  begin
     id 23
     name lthumb
     direction 0.707107 -6.34881e-011 0.707107   
     length 1.14865   
     axis -90 45 -3.53137e-014   XYZ
    dof rx rz
    limits (-45.0 45.0)
           (-45.0 45.0)
  end
  begin
     id 24 
     name rclavicle
     direction -0.945672 0.324529 0.0196374   
     length 3.4236  
     axis 0 0 0   XYZ 
    dof ry rz
    limits (-10.0 20.0)
           (-20.0 0.0)
  end
  begin
     id 25 
     name rhumerus
     direction -1 -4.4896e-011 1.02757e-029  
     length 4.62052   
     axis -180 30 90   XYZ
    dof rx ry rz
    limits (-90.0 60.0)
           (-90.0 90.0)
           (-90.0 90.0)
  end
  begin
     id 26 
     name rradius
     direction -1 -4.48982e-011 3.85962e-027   
     length 2.95332   
     axis -180 30 90   XYZ
    dof rx
    limits (-10.0 170.0)
  end
  begin
     id 27 
     name rwrist
     direction -1 -4.48961e-011 7.55118e-027   
     length 1.47666   
     axis -7.18178e-015 -90 -90   XYZ
    dof ry
    limits (-180.0 0.0)
  end
  begin
     id 28
     name rhand
     direction -1 -4.48984e-011 1.50994e-026   
     length 0.990956   
     axis -9.63605e-015 -90 -90   XYZ
    dof rx rz
    limits (-90.0 90.0)
           (-45.0 45.0)
  end
  begin
     id 29
     name rfingers
     direction -1 -4.4892e-011 3.02158e-026   
     length 0.798934   
     axis -1.92718e-014 -90 -90   XYZ
    dof rx
    limits (0.0 90.0)
  end
  begin
     id 30
     name rthumb
     direction -0.707107 -6.34916e-011 0.707107   
     length 1.14711   
     axis -90 -45 3.53137e-014   XYZ
    dof rx rz
    limits (-45.0 45.0)
           (-45.0 45.0)
  end
:hierarchy
  begin
    root lhipjoint rhipjoint lowerback
    lhipjoint lfemur
    lfemur ltibia
    ltibia lfoot
    lfoot ltoes
    rhipjoint rfemur
    rfemur rtibia
    rtibia rfoot
    rfoot rtoes
    lowerback upperback
    upperback thorax
    thorax lowerneck lclavicle rclavicle
    lowerneck upperneck
    upperneck head
    lclavicle lhumerus
    lhumerus lradius
    lradius lwrist
    lwrist lhand lthumb
    lhand lfingers
    rclavicle rhumerus
    rhumerus rradius
    rradius rwrist
    rwrist rhand rthumb
    rhand rfingers
  end

#!OML:ASF H:\ManfredObstacles\Project 1\Capture day 1\Session 1\Male.ASF
:FULLY-SPECIFIED
:DEGREES
130
root 11.181 16.1303 30.4034 -169.483 -8.38913 -176.492
lowerback -10.1777 -3.36547 -2.36179
upperback 1.29491 -4.50417 3.3215
thorax 7.54796 -2.41129 4.08827
lowerneck -1.51798 -2.42348 -5.6852
upperneck -5.25076 -2.44684 11.1953
head -1.19126 -1.10745 4.7637
rclavicle 2.46741e-014 -3.96575e-014
rhumerus -40.4194 -29.4522 -68.853
rradius 22.7491
rwrist 37.3118
rhand -2.0246 -6.39149
rfingers 7.12502
rthumb 23.6498 -34.9568
lclavicle 2.46741e-014 -3.96575e-014
lhumerus -23.1752 2.18163 91.5235
lradius 22.1209
lwrist -25.3733
lhand -6.8047 8.88591
lfingers 7.12502
lthumb 19.0586 37.9721
rfemur -28.4364 -7.44511 25.455
rtibia 30.7378
rfoot -18.6569 11.5808
rtoes 21.359
lfemur 0.879246 -6.19821 -14.3889
ltibia 15.3575
lfoot -10.9902 3.52815
ltoes -21.2066
131
root 11.2428 16.1369 30.2633 -169.674 -7.88661 -176.682
lowerback -10.102 -3.3809 -2.47463
upperback 1.34547 -4.48732 3.12705
thorax 7.54925 -2.39911 3.95076
lowerneck -1.62616 -2.39583 -5.68801
upperneck -4.97712 -2.44624 11.1051
head -1.08316 -1.10578 4.72462
rclavicle 2.08724e-014 -2.28602e-014
rhumerus -40.5815 -29.7688 -68.7471
rradius 22.5277
rwrist 37.738
rhand -1.94407 -6.30684
rfingers 7.12502
rthumb 23.727 -34.8622
lclavicle 2.08724e-014 -2.28602e-014
lhumerus -23.4003 2.6594 91.0063
lradius 22.0342
lwrist -25.8082
lhand -7.04392 8.36269
lfingers 7.12502
lthumb 18.8286 37.4714
rfemur -27.5903 -7.62173 25.5401
rtibia 30.5534
rfoot -18.7121 12.4418
rtoes 23.0585
lfemur 0.435733 -6.36123 -14.4276
ltibia 17.6995
lfoot -11.0322 3.29258
ltoes -21.3477
132
root 11.3026 16.1478 30.124 -169.731 -7.30876 -176.982
lowerback -10.1436 -3.41294 -2.70067
upperback 1.3359 -4.48023 2.96338
thorax 7.56621 -2.39727 3.90373
lowerneck -1.71326 -2.25365 -5.7814
upperneck -4.82417 -2.28216 10.9608
head -1.03371 -1.0227 4.68804
rclavicle 1.21134e-014 9.93923e-016
rhumerus -40.6872 -29.9949 -68.5173
rradius 22.2478
rwrist 38.2675
rhand -1.71281 -6.03878
rfingers 7.12502
rthumb 23.9488 -34.5652
lclavicle 1.21134e-014 9.93923e-016
lhumerus -23.6258 3.50497 90.508
lradius 21.9563
lwrist -26.3934
lhand -7.1781 7.98513
lfingers 7.12502
lthumb 18.6995 37.1063
rfemur -26.8864 -7.69786 25.4784
rtibia 30.3453
rfoot -18.7501 13.2591
rtoes 24.3266
lfemur -0.229128 -6.30469 -14.6582
ltibia 20.3327
lfoot -10.3453 3.77076
ltoes -27.2758
133
root 11.3605 16.1551 29.9881 -169.707 -6.62983 -177.205
lowerback -10.2954 -3.38621 -2.85294
upperback 1.30888 -4.40602 2.82299
thorax 7.617 -2.36117 3.84674
lowerneck -1.77418 -2.10677 -5.98021
upperneck -4.54886 -2.12703 10.8465
head -0.946971 -0.945053 4.68287
rclavicle -1.52195e-014 -6.4605e-016
rhumerus -40.8034 -30.0317 -68.3727
rradius 22.0994
rwrist 38.5333
rhand -1.37037 -5.87793
rfingers 7.12502
rthumb 24.2772 -34.3608
lclavicle -1.52195e-014 -6.4605e-016
lhumerus -23.7797 3.82258 90.1825
lradius 21.8585
lwrist -26.4026
lhand -7.13275 8.16225
lfingers 7.12502
lthumb 18.7431 37.2792
rfemur -26.3158 -7.51189 25.4374
rtibia 30.1585
rfoot -18.8234 13.9332
rtoes 25.2085
lfemur -1.18889 -6.10176 -14.8214
ltibia 23.2297
lfoot -9.3594 4.4836
ltoes -30.7093
134
root 11.4198 16.1583 29.8528 -169.755 -5.89722 -177.287
lowerback -10.4058 -3.33015 -2.88493
upperback 1.33017 -4.31057 2.69032
thorax 7.68517 -2.31128 3.73505
lowerneck -1.7644 -1.94647 -6.09079
upperneck -4.43699 -1.93391 10.7509
head -0.930749 -0.850438 4.67042
rclavicle 1.60643e-014 6.60959e-015
rhumerus -40.7445 -29.9681 -68.4937
rradius 22.0088
rwrist 38.5447
rhand -1.05851 -5.90791
rfingers 7.12502
rthumb 24.5761 -34.3505
lclavicle 1.60643e-014 6.60959e-015
lhumerus -23.9205 4.26413 89.748
lradius 21.7205
lwrist -26.6769
lhand -7.00264 8.25642
lfingers 7.12502
lthumb 18.8683 37.3613
rfemur -25.6519 -7.24365 25.5314
rtibia 29.932
rfoot -18.9729 14.5427
rtoes 26.152
lfemur -2.30418 -5.5794 -14.797
ltibia 26.4326
lfoot -8.39729 4.77559
ltoes -30.3643
135
root 11.4774 16.1662 29.7172 -169.781 -5.13703 -177.269
lowerback -10.4979 -3.21085 -2.70865
upperback 1.32024 -4.15425 2.51038
thorax 7.68414 -2.2202 3.46848
lowerneck -1.81448 -1.80067 -6.04818
upperneck -4.24945 -1.75818 10.6893
head -0.878255 -0.762442 4.63731
rclavicle 4.73449e-014 1.10077e-014
rhumerus -40.6698 -30.1112 -68.6372
rradius 21.8727
rwrist 38.6032
rhand -0.864012 -6.00764
rfingers 7.12502
rthumb 24.7625 -34.4247
lclavicle 4.73449e-014 1.10077e-014
lhumerus -24.1674 4.78055 89.1908
lradius 21.6837
lwrist -27.088
lhand -6.83276 8.22087
lfingers 7.12502
lthumb 19.0317 37.3098
rfemur -24.9999 -7.17138 25.7648
rtibia 29.6724
rfoot -19.1749 15.3631
rtoes 27.4242
lfemur -3.66412 -4.89066 -14.6424
ltibia 29.8818
lfoot -7.05131 4.99436
ltoes -25.8808
136
root 11.5331 16.1716 29.5865 -169.843 -4.47205 -177.311
lowerback -10.5051 -3.09627 -2.5204
upperback 1.33804 -4.00296 2.28695
thorax 7.6625 -2.12972 3.15176
lowerneck -2.06982 -1.67936 -5.85289
upperneck -3.93255 -1.62582 10.4792
head -0.744684 -0.691484 4.51519
rclavicle 1.48219e-014 -1.51573e-014
rhumerus -40.5548 -30.3078 -68.8098
rradius 21.7832
rwrist 38.7131
rhand -0.699155 -6.22526
rfingers 7.12502
rthumb 24.9205 -34.6205
lclavicle 1.48219e-014 -1.51573e-014
lhumerus -24.3489 5.18844 88.6673
lradius 21.6618
lwrist -27.268
lhand -6.83061 8.2324
lfingers 7.12502
lthumb 19.0337 37.3211
rfemur -24.2833 -7.15094 25.9131
rtibia 29.3649
rfoot -19.4134 16.1481
rtoes 28.5723
lfemur -5.23574 -4.16735 -14.5272
ltibia 33.5727
lfoot -5.21549 5.52094
ltoes -16.7017
137
root 11.5879 16.1787 29.4625 -169.917 -3.90573 -177.521
lowerback -10.374 -3.07765 -2.59006
upperback 1.3506 -3.95303 2.11676
thorax 7.58878 -2.10117 3.02526
lowerneck -2.36909 -1.57021 -5.67564
upperneck -3.57283 -1.5284 10.0545
head -0.587965 -0.640477 4.31965
rclavicle -1.6524e-014 5.1684e-015
rhumerus -40.3216 -30.5965 -68.8013
rradius 21.5659
rwrist 39.2049
rhand -0.666672 -6.19331
rfingers 7.12502
rthumb 24.9517 -34.5843
lclavicle -1.6524e-014 5.1684e-015
lhumerus -24.485 6.00333 88.1815
lradius 21.538
lwrist -27.683
lhand -7.07427 8.22242
lfingers 7.12502
lthumb 18.7994 37.334
rfemur -23.5183 -7.1456 25.8523
rtibia 28.9965
rfoot -19.6216 16.8056
rtoes 29.615
lfemur -7.08741 -3.45725 -14.588
ltibia 37.5194
lfoot -3.0327 6.23636
ltoes -5.5869
138
root 11.6391 16.1899 29.3426 -169.906 -3.40419 -177.584
lowerback -10.2478 -3.1097 -2.56498
upperback 1.3226 -3.99776 2.08202
thorax 7.48547 -2.11955 2.973
lowerneck -2.56885 -1.42903 -5.72365
upperneck -3.31959 -1.37633 9.71576
head -0.486155 -0.56437 4.20499
rclavicle 2.43635e-014 6.41081e-015
rhumerus -39.8609 -30.7411 -68.7672
rradius 21.1943
rwrist 39.699
rhand -0.81059 -5.94036
rfingers 7.12502
rthumb 24.8137 -34.3504
lclavicle 2.43635e-014 6.41081e-015
lhumerus -24.7112 7.35258 87.6671
lradius 21.5129
lwrist -28.4711
lhand -7.20036 8.35191
lfingers 7.12502
lthumb 18.6781 37.4752
rfemur -22.8686 -7.28485 25.9716
rtibia 28.5853
rfoot -19.4768 17.5386
rtoes 30.9096
lfemur -9.29787 -2.75615 -14.4807
ltibia 41.6499
lfoot -0.662982 5.93717
ltoes -26.4873
